<svg xmlns="http://www.w3.org/2000/svg" viewBox="0 0 128 128" role="img" aria-label="VidaCell favicon">
  <rect width="128" height="128" rx="26" fill="#071014"/>
  <path d="M20 38h36l12 31 12-31h28L82 98H55L20 38z" fill="#e6007e"/>
  <path d="M86 38c-19 0-34 13-34 30s15 30 34 30c10 0 19-3 26-9V73c-6 6-13 9-22 9-10 0-17-5-17-14s7-14 17-14c9 0 16 3 22 9V47c-7-6-16-9-26-9z" fill="#13d4e8"/>
  <polyline points="17,24 39,24 46,13 54,40 62,24 89,24 96,13 103,38 111,24" fill="none" stroke="#47f75a" stroke-width="5" stroke-linecap="round" stroke-linejoin="round"/>
</svg>
