<svg xmlns="http://www.w3.org/2000/svg" viewBox="0 0 900 260" role="img" aria-labelledby="title desc">
  <title id="title">VidaCell</title>
  <desc id="desc">Logotipo provisional de VidaCell con teléfono, pulso, magenta y cyan.</desc>
  <defs>
    <filter id="softShadow" x="-20%" y="-20%" width="140%" height="140%">
      <feDropShadow dx="0" dy="8" stdDeviation="7" flood-color="#071014" flood-opacity="0.18"/>
    </filter>
  </defs>

  <g filter="url(#softShadow)">
    <path d="M95 34h250c24 0 42 18 42 42v86" fill="none" stroke="#071014" stroke-width="12" stroke-linecap="round"/>
    <path d="M95 34c-24 0-42 18-42 42v82c0 24 18 42 42 42" fill="none" stroke="#071014" stroke-width="12" stroke-linecap="round"/>
    <rect x="104" y="51" width="226" height="98" rx="7" fill="#071014"/>
    <rect x="72" y="93" width="10" height="50" rx="5" fill="#071014"/>
    <circle cx="355" cy="101" r="20" fill="#ffffff" stroke="#071014" stroke-width="8"/>
    <circle cx="355" cy="101" r="11" fill="#39ff5a"/>
    <polyline points="111,101 197,101 213,59 229,138 243,93 253,110 303,110 315,57 331,141 342,90 355,101" fill="none" stroke="#39ff5a" stroke-width="5" stroke-linecap="round" stroke-linejoin="round"/>
  </g>

  <text x="82" y="227" font-family="Arial Black, Arial, Helvetica, sans-serif" font-size="104" font-weight="900" letter-spacing="-7" fill="#e6007e">VIDA</text>
  <text x="389" y="227" font-family="Arial Black, Arial, Helvetica, sans-serif" font-size="104" font-weight="900" font-style="italic" letter-spacing="-8" fill="#13d4e8">CELL</text>
</svg>
