<svg xmlns="http://www.w3.org/2000/svg" viewBox="0 0 720 255" width="720" height="255" preserveAspectRatio="xMidYMid meet" role="img" aria-labelledby="title desc">
  <title id="title">VidaCell</title>
  <desc id="desc">Logotipo VidaCell ajustado a las proporciones originales.</desc>

  <g>
    <path d="M22 25h268c22 0 39 17 39 39v86" fill="none" stroke="#071014" stroke-width="9" stroke-linecap="round"/>
    <path d="M22 25C2 25-14 42-14 64v77c0 22 16 39 38 39" fill="none" stroke="#071014" stroke-width="9" stroke-linecap="round"/>
    <rect x="38" y="38" width="238" height="110" rx="4" fill="#071014"/>
    <rect x="8" y="82" width="8" height="48" rx="4" fill="#071014"/>
    <circle cx="302" cy="94" r="19" fill="#ffffff" stroke="#071014" stroke-width="7"/>
    <circle cx="302" cy="94" r="11" fill="#47f75a"/>
    <polyline points="48,94 129,94 143,49 159,136 171,87 181,105 229,105 243,50 258,136 268,86 278,104 302,94" fill="none" stroke="#47f75a" stroke-width="5" stroke-linecap="round" stroke-linejoin="round"/>
  </g>

  <g font-family="Arial Black, Impact, Arial, Helvetica, sans-serif" font-weight="900">
    <text x="42" y="240" font-size="126" letter-spacing="-8" fill="#e6007e">VIDA</text>
    <text x="321" y="240" font-size="126" letter-spacing="-3" font-style="italic" fill="#13d4e8">CELL</text>
  </g>
</svg>
