<svg xmlns="http://www.w3.org/2000/svg" viewBox="0 0 720 255" width="720" height="255" preserveAspectRatio="xMidYMid meet" role="img" aria-labelledby="title desc">
  <title id="title">VidaCell</title>
  <desc id="desc">Logotipo VidaCell con proporciones horizontales respetadas.</desc>

  <g>
    <path d="M24 26h270c21 0 38 17 38 38v87" fill="none" stroke="#071014" stroke-width="9" stroke-linecap="round"/>
    <path d="M24 26C3 26-13 43-13 64v79c0 21 16 38 37 38" fill="none" stroke="#071014" stroke-width="9" stroke-linecap="round"/>
    <rect x="37" y="39" width="239" height="109" rx="4" fill="#071014"/>
    <rect x="7" y="82" width="8" height="48" rx="4" fill="#071014"/>
    <circle cx="305" cy="94" r="19" fill="#ffffff" stroke="#071014" stroke-width="7"/>
    <circle cx="305" cy="94" r="11" fill="#44f35a"/>
    <polyline points="48,94 130,94 144,50 160,136 172,87 182,105 231,105 245,51 260,136 270,86 280,105 305,94" fill="none" stroke="#44f35a" stroke-width="5" stroke-linecap="round" stroke-linejoin="round"/>
  </g>

  <g font-family="Arial Black, Impact, Arial, Helvetica, sans-serif" font-weight="900">
    <text x="44" y="240" font-size="124" letter-spacing="-7" fill="#e6007e">VIDA</text>
    <text x="327" y="240" font-size="124" letter-spacing="-2" font-style="italic" fill="#18d3e8">CELL</text>
  </g>
</svg>
